<svg xmlns="http://www.w3.org/2000/svg"
     width="400px" height="300px"
     viewBox="0 0 300 223"
     viewport-fill="#f6fcff"
     >
  <path id="Selection"
        fill="#004a87" stroke="#004a87" stroke-width="1"
        d="M 121.00,26.22
           C 124.85,23.59 127.40,24.08 128.98,21.69
             131.01,18.61 128.63,13.21 132.72,9.57
             135.28,7.29 138.27,8.51 140.78,7.40
             143.31,6.28 143.72,4.06 145.49,2.31
             148.05,-0.21 152.68,-0.55 155.98,0.56
             161.38,2.38 160.39,6.41 165.06,7.80
             167.16,8.43 169.56,7.81 171.52,9.02
             175.78,11.64 174.83,19.21 176.00,24.00
             184.48,24.35 191.03,34.78 199.00,37.06
             201.70,37.83 204.39,36.67 207.00,36.00
             207.00,36.00 207.00,95.00 207.00,95.00
             207.07,105.11 210.90,105.49 219.00,101.00
             219.00,101.00 219.00,117.00 219.00,117.00
             219.04,119.94 219.02,122.35 220.74,124.91
             222.79,127.96 227.83,130.87 231.00,132.80
             231.00,132.80 252.00,145.42 252.00,145.42
             258.86,149.70 260.88,153.35 269.00,150.00
             269.00,150.00 269.00,175.00 269.00,175.00
             275.45,176.31 285.25,183.49 291.00,187.33
             293.07,188.71 296.82,190.94 297.89,193.18
             299.23,196.01 296.97,201.14 296.00,204.00
             294.70,207.82 290.34,219.93 287.37,222.01
             285.58,223.25 282.13,223.00 280.00,223.00
             280.00,223.00 20.00,223.00 20.00,223.00
             18.23,223.00 14.94,223.14 13.38,222.43
             9.53,220.67 5.40,209.09 4.00,205.00
             3.07,202.27 0.76,196.99 2.11,194.33
             3.22,192.15 7.86,189.67 10.00,188.32
             10.00,188.32 25.00,178.37 25.00,178.37
             26.95,177.15 30.80,175.39 31.98,173.59
             33.22,171.68 33.00,168.24 33.00,166.00
             33.01,160.64 32.53,155.19 34.00,150.00
             41.19,153.70 42.70,150.68 49.00,146.52
             49.00,146.52 73.00,131.66 73.00,131.66
             79.36,127.52 82.85,127.05 83.00,119.00
             83.00,119.00 83.00,102.00 83.00,102.00
             83.00,102.00 95.00,104.00 95.00,104.00
             95.00,104.00 95.00,35.00 95.00,35.00
             107.25,41.13 111.38,32.81 121.00,26.22 Z
           M 108.00,47.00
           C 108.00,47.00 108.00,109.00 108.00,109.00
             108.00,109.00 124.00,109.00 124.00,109.00
             124.00,109.00 124.00,47.00 124.00,47.00
             124.00,47.00 108.00,47.00 108.00,47.00 Z
           M 131.00,47.00
           C 131.00,47.00 131.00,109.00 131.00,109.00
             131.00,109.00 148.00,109.00 148.00,109.00
             148.00,109.00 148.00,47.00 148.00,47.00
             148.00,47.00 131.00,47.00 131.00,47.00 Z
           M 155.00,47.00
           C 155.00,47.00 155.00,109.00 155.00,109.00
             155.00,109.00 171.00,109.00 171.00,109.00
             171.00,109.00 171.00,47.00 171.00,47.00
             171.00,47.00 155.00,47.00 155.00,47.00 Z
           M 179.00,47.00
           C 179.00,47.00 179.00,109.00 179.00,109.00
             179.00,109.00 195.00,109.00 195.00,109.00
             195.00,109.00 195.00,47.00 195.00,47.00
             195.00,47.00 179.00,47.00 179.00,47.00 Z" />
</svg>
