<svg enable-background="new 0 0 64 64" height="64" viewBox="0 0 64 64" width="64" xmlns="http://www.w3.org/2000/svg"><g clip-rule="evenodd" fill="#231f20" fill-rule="evenodd"><path d="m32 14.002c-9.941 0-18 8.059-18 18s8.059 18 18 18 18-8.059 18-18-8.059-18-18-18zm0 34c-8.837 0-16-7.164-16-16s7.163-16 16-16 16 7.164 16 16-7.163 16-16 16z"/><path d="m32 20.002c-.553 0-1 .447-1 1s.447 1 1 1c5.522 0 10 4.477 10 10 0 .553.447 1 1 1s1-.447 1-1c0-6.627-5.373-12-12-12z"/><path d="m63 31h-10c-.553 0-1 .447-1 1s.447 1 1 1h10c.553 0 1-.447 1-1s-.447-1-1-1z"/><path d="m11.457 36.47-3.863 1.035c-.534.144-.851.692-.707 1.226.143.533.69.85 1.225.706l3.863-1.035c.533-.143.85-.69.707-1.225-.143-.533-.692-.85-1.225-.707z"/><path d="m49.32 22c.277.479.888.643 1.367.366l8.66-5c.479-.276.643-.888.365-1.366-.275-.479-.887-.642-1.365-.365l-8.66 5c-.479.277-.642.886-.367 1.365z"/><path d="m17.858 46.143c-.39-.391-1.023-.389-1.414 0l-2.828 2.828c-.391.391-.39 1.025.001 1.415.39.391 1.022.39 1.413-.001l2.828-2.828c.391-.389.391-1.023 0-1.414z"/><path d="m42 14.68c.479.276 1.09.113 1.367-.366l5-8.66c.277-.479.113-1.091-.367-1.367-.478-.276-1.088-.112-1.365.366l-4.999 8.661c-.278.479-.114 1.089.364 1.366z"/><path d="m26.824 51.318c-.532-.143-1.08.176-1.225.707l-1.035 3.863c-.143.535.176 1.083.709 1.226.533.144 1.08-.173 1.223-.708l1.035-3.863c.145-.531-.172-1.08-.707-1.225z"/><path d="m32 12c.554 0 1.001-.446 1.002-1v-10c0-.553-.447-1-1.002-1-.551 0-.998.447-.999 1l.001 10c0 .553.447 1 .998 1z"/><path d="m38.402 52.025c-.141-.532-.689-.85-1.225-.707-.533.143-.848.692-.707 1.225l1.035 3.863c.144.535.693.85 1.227.707s.849-.689.705-1.225z"/><path d="m20.637 14.312c.275.479.887.643 1.363.367.48-.277.645-.887.368-1.367l-5-8.66c-.276-.478-.888-.642-1.368-.365-.477.275-.641.887-.365 1.365z"/><path d="m47.558 46.142c-.388-.39-1.022-.39-1.414 0-.391.39-.388 1.024 0 1.414l2.828 2.828c.392.392 1.025.389 1.415-.001.391-.39.391-1.021-.001-1.413z"/><path d="m4.654 17.365 8.662 4.999c.477.276 1.088.113 1.363-.364.277-.479.115-1.09-.364-1.367l-8.661-5c-.478-.277-1.09-.113-1.367.367-.274.477-.111 1.089.367 1.365z"/><path d="m52.027 38.4 3.863 1.035c.535.145 1.082-.176 1.225-.709.144-.532-.172-1.079-.707-1.223l-3.863-1.035c-.531-.145-1.081.173-1.225.707s.176 1.081.707 1.225z"/><path d="m12 32c.001-.554-.445-1-.998-1.002l-10.002.002c-.552 0-1 .445-1 1 .001.551.448 1 1.001 1l10.001-.002c.551 0 .999-.446.998-.998z"/><path d="m52.545 27.529 3.863-1.035c.535-.143.85-.693.706-1.227-.142-.531-.688-.848-1.224-.705l-3.863 1.035c-.533.141-.85.691-.707 1.225.141.534.692.848 1.225.707z"/><path d="m14.68 42c-.275-.48-.886-.644-1.365-.368l-8.661 5.002c-.478.276-.644.886-.367 1.366.277.477.889.641 1.367.365l8.66-5.002c.477-.275.643-.884.366-1.363z"/><path d="m46.144 17.856c.389.392 1.022.388 1.414 0l2.828-2.828c.392-.392.39-1.024-.002-1.415-.388-.39-1.021-.391-1.412.001l-2.828 2.828c-.392.388-.39 1.024 0 1.414z"/><path d="m22 49.32c-.479-.277-1.088-.113-1.365.364l-5 8.663c-.275.478-.115 1.088.365 1.365.479.274 1.09.11 1.367-.367l4.998-8.662c.276-.476.115-1.086-.365-1.363z"/><path d="m37.178 12.68c.531.145 1.078-.176 1.225-.707l1.035-3.863c.143-.535-.176-1.083-.709-1.225-.531-.144-1.08.172-1.223.707l-1.035 3.863c-.147.531.174 1.081.707 1.225z"/><path d="m32 52c-.553-.002-.998.446-1 .998l.002 10.004c0 .55.443.998.998.998.553 0 1-.449 1.001-1l-.003-10.002c0-.551-.443-.998-.998-.998z"/><path d="m25.6 11.973c.139.533.691.85 1.225.707.532-.141.846-.691.707-1.225l-1.035-3.863c-.145-.535-.693-.851-1.227-.706-.531.142-.85.688-.705 1.224z"/><path d="m43.363 49.687c-.275-.478-.883-.644-1.363-.365-.479.274-.641.885-.367 1.364l5.004 8.661c.275.478.883.644 1.363.366.479-.277.642-.889.367-1.367z"/><path d="m16.443 17.856c.387.394 1.023.39 1.414 0 .391-.388.387-1.021 0-1.414l-2.828-2.828c-.393-.392-1.025-.39-1.415.002-.39.388-.392 1.021.001 1.412z"/><path d="m59.348 46.633-8.663-4.997c-.478-.276-1.087-.116-1.363.366-.278.477-.112 1.086.364 1.364l8.664 4.999c.477.275 1.086.115 1.363-.365.275-.479.111-1.09-.365-1.367z"/><path d="m11.974 25.599-3.864-1.036c-.536-.144-1.083.175-1.225.708-.144.531.171 1.08.707 1.225l3.863 1.034c.531.146 1.081-.175 1.225-.707.145-.53-.175-1.077-.706-1.224z"/></g></svg>