<?xml version="1.0" encoding="UTF-8" standalone="no"?>
<!DOCTYPE svg PUBLIC "-//W3C//DTD SVG 20010904//EN"
              "http://www.w3.org/TR/2001/REC-SVG-20010904/DTD/svg10.dtd">

<svg xmlns="http://www.w3.org/2000/svg"
     width="401" height="102"
     viewBox="0 0 2971 736">
  <path id="Selection"
        fill="#004a87" stroke="#004a87" stroke-width="1"
        d="M 480.28,1.57
           C 482.00,0.86 485.10,1.00 487.00,1.00
             487.00,1.00 507.00,1.00 507.00,1.00
             519.78,1.09 514.60,6.94 525.00,10.00
             524.68,11.91 524.18,14.07 524.43,16.00
             526.55,32.18 552.80,25.87 557.87,27.31
             560.92,28.18 561.49,30.66 563.41,32.91
             569.34,39.88 570.98,35.98 571.02,47.00
             571.02,47.00 571.02,67.00 571.02,67.00
             571.02,67.00 571.02,70.98 571.02,70.98
             571.86,79.97 579.08,74.99 584.00,77.21
             586.14,78.18 591.72,83.18 594.00,85.00
             594.00,85.00 634.00,113.33 634.00,113.33
             641.38,118.31 645.62,123.37 655.00,122.96
             663.07,122.61 669.44,117.16 677.00,115.00
             677.00,115.00 677.00,288.00 677.00,288.00
             677.00,288.00 677.00,325.00 677.00,325.00
             677.00,328.24 676.27,335.98 678.60,338.26
             680.94,340.55 687.79,340.03 691.00,340.00
             694.75,339.95 698.62,339.68 702.00,337.86
             707.47,334.92 706.68,332.56 714.00,331.00
             715.22,337.51 715.97,339.11 716.00,346.00
             716.00,346.00 716.00,396.00 716.00,396.00
             716.01,399.70 716.15,406.66 718.01,409.83
             719.79,412.87 725.94,416.62 729.00,418.67
             729.00,418.67 752.00,433.42 752.00,433.42
             752.00,433.42 792.00,457.58 792.00,457.58
             792.00,457.58 827.00,478.34 827.00,478.34
             834.62,483.30 852.48,497.50 861.00,497.71
             867.41,497.88 869.66,492.46 878.00,490.00
             878.00,490.00 879.00,511.00 879.00,511.00
             879.00,511.00 879.00,563.00 879.00,563.00
             879.00,563.00 880.02,570.65 880.02,570.65
             880.02,570.65 888.00,573.45 888.00,573.45
             888.00,573.45 903.00,583.05 903.00,583.05
             903.00,583.05 953.00,614.69 953.00,614.69
             953.00,614.69 977.00,631.00 977.00,631.00
             977.00,631.00 969.33,657.00 969.33,657.00
             969.33,657.00 950.14,707.00 950.14,707.00
             948.40,710.91 941.27,726.07 938.39,728.01
             936.54,729.25 933.19,729.00 931.00,729.00
             931.00,729.00 241.00,729.00 241.00,729.00
             241.00,729.00 47.00,729.00 47.00,729.00
             45.23,729.00 41.94,729.14 40.38,728.43
             36.64,726.72 29.85,712.20 27.75,708.00
             19.97,692.40 4.34,651.53 1.00,635.00
             21.45,622.73 44.87,608.80 64.00,594.85
             75.32,586.59 92.84,572.69 107.00,572.00
             107.00,572.00 107.00,511.00 107.00,511.00
             107.00,511.00 108.00,489.00 108.00,489.00
             120.16,490.41 118.09,500.92 131.00,496.64
             140.80,493.39 154.52,481.78 164.00,476.00
             164.00,476.00 240.00,429.19 240.00,429.19
             240.00,429.19 259.00,417.00 259.00,417.00
             261.64,415.24 266.42,412.46 267.99,409.82
             269.85,406.70 269.99,399.66 270.00,396.00
             270.00,396.00 271.00,331.00 271.00,331.00
             280.43,335.06 289.33,340.82 300.00,340.82
             300.00,340.82 308.00,340.00 308.00,340.00
             308.00,340.00 308.00,134.00 308.00,134.00
             308.00,134.00 309.00,119.00 309.00,119.00
             309.00,119.00 309.00,114.00 309.00,114.00
             317.34,115.78 316.26,119.55 322.04,121.99
             327.00,124.09 338.83,122.82 344.00,121.23
             356.71,117.31 377.93,99.24 389.00,90.40
             392.14,87.89 402.55,78.50 405.00,77.60
             406.77,76.95 409.12,77.01 411.00,77.00
             411.00,77.00 422.00,77.00 422.00,77.00
             422.00,77.00 422.00,53.00 422.00,53.00
             422.00,49.98 421.71,43.62 422.74,41.04
             423.97,37.95 426.64,36.31 428.78,33.91
             433.80,28.28 431.26,27.06 440.00,27.00
             450.87,26.93 465.83,30.52 468.11,16.00
             468.60,13.75 468.29,12.20 468.11,10.00
             475.67,7.38 476.16,3.28 480.28,1.57 Z
           M 1859.00,246.00
           C 1858.96,270.54 1850.82,300.17 1834.70,319.00
             1819.70,336.52 1795.84,345.96 1773.00,346.00
             1773.00,346.00 1754.00,346.00 1754.00,346.00
             1734.82,345.77 1711.74,337.56 1698.09,323.91
             1683.33,309.15 1675.42,287.09 1671.40,267.00
             1664.88,234.40 1664.62,201.14 1665.00,168.00
             1665.00,168.00 1665.91,158.00 1665.91,158.00
             1665.91,158.00 1666.83,143.00 1666.83,143.00
             1670.02,110.04 1675.70,70.84 1703.00,48.46
             1727.14,28.68 1765.54,26.82 1795.00,32.80
             1809.68,35.78 1825.50,42.81 1835.71,54.04
             1848.90,68.54 1856.77,91.47 1857.00,111.00
             1857.00,111.00 1858.00,131.00 1858.00,131.00
             1858.00,131.00 1809.00,131.00 1809.00,131.00
             1809.00,114.34 1808.82,96.04 1798.39,82.00
             1788.08,68.10 1773.52,64.05 1757.00,66.75
             1750.21,67.86 1744.66,69.44 1739.00,73.61
             1734.83,76.68 1731.50,80.68 1728.70,85.00
             1720.86,97.10 1717.55,115.78 1715.85,130.00
             1712.91,154.60 1712.96,179.23 1713.00,204.00
             1713.00,204.00 1714.00,224.00 1714.00,224.00
             1714.00,224.00 1715.85,244.00 1715.85,244.00
             1717.97,261.78 1722.02,285.74 1735.09,298.91
             1746.23,310.13 1767.68,313.59 1782.00,307.10
             1789.82,303.55 1796.00,297.29 1800.37,290.00
             1810.57,273.00 1811.00,251.21 1811.00,232.00
             1811.00,232.00 1859.00,232.00 1859.00,232.00
             1859.00,232.00 1859.00,246.00 1859.00,246.00 Z
           M 2512.00,31.21
           C 2520.14,31.01 2531.24,32.57 2539.00,35.03
             2585.46,49.74 2598.55,98.85 2603.16,142.00
             2603.16,142.00 2605.00,163.00 2605.00,163.00
             2605.00,163.00 2605.00,209.00 2605.00,209.00
             2604.97,229.71 2599.46,261.41 2592.66,281.00
             2580.14,317.05 2556.30,341.94 2517.00,345.08
             2512.51,345.44 2511.08,346.16 2506.00,345.96
             2493.48,345.47 2480.66,343.27 2469.00,338.55
             2444.45,328.60 2429.42,305.18 2421.33,281.00
             2414.91,261.80 2411.47,241.18 2410.00,221.00
             2410.00,221.00 2410.00,212.00 2410.00,212.00
             2410.00,212.00 2409.00,200.00 2409.00,200.00
             2408.97,179.56 2409.23,159.27 2412.00,139.00
             2414.52,120.55 2418.52,101.01 2426.31,84.00
             2440.98,51.97 2460.61,37.05 2495.00,31.21
             2495.00,31.21 2512.00,31.21 2512.00,31.21 Z
           M 1222.00,36.00
           C 1222.00,36.00 1222.00,52.00 1222.00,52.00
             1222.00,52.00 1141.00,52.00 1141.00,52.00
             1141.00,52.00 1141.00,341.00 1141.00,341.00
             1141.00,341.00 1124.00,341.00 1124.00,341.00
             1124.00,341.00 1124.00,52.00 1124.00,52.00
             1124.00,52.00 1043.00,52.00 1043.00,52.00
             1043.00,52.00 1043.00,36.00 1043.00,36.00
             1043.00,36.00 1222.00,36.00 1222.00,36.00 Z
           M 1274.00,36.00
           C 1274.00,36.00 1274.00,170.00 1274.00,170.00
             1274.00,170.00 1408.00,170.00 1408.00,170.00
             1408.00,170.00 1408.00,36.00 1408.00,36.00
             1408.00,36.00 1425.00,36.00 1425.00,36.00
             1425.00,36.00 1425.00,341.00 1425.00,341.00
             1425.00,341.00 1408.00,341.00 1408.00,341.00
             1408.00,341.00 1408.00,185.00 1408.00,185.00
             1408.00,185.00 1274.00,185.00 1274.00,185.00
             1274.00,185.00 1274.00,341.00 1274.00,341.00
             1274.00,341.00 1256.00,341.00 1256.00,341.00
             1256.00,341.00 1256.00,36.00 1256.00,36.00
             1256.00,36.00 1274.00,36.00 1274.00,36.00 Z
           M 1630.00,36.00
           C 1630.00,36.00 1630.00,52.00 1630.00,52.00
             1630.00,52.00 1502.00,52.00 1502.00,52.00
             1502.00,52.00 1502.00,174.00 1502.00,174.00
             1502.00,174.00 1621.00,174.00 1621.00,174.00
             1621.00,174.00 1621.00,190.00 1621.00,190.00
             1621.00,190.00 1502.00,190.00 1502.00,190.00
             1502.00,190.00 1502.00,325.00 1502.00,325.00
             1502.00,325.00 1634.00,325.00 1634.00,325.00
             1634.00,325.00 1632.98,339.40 1632.98,339.40
             1632.98,339.40 1626.00,341.00 1626.00,341.00
             1626.00,341.00 1597.00,341.00 1597.00,341.00
             1597.00,341.00 1485.00,341.00 1485.00,341.00
             1485.00,341.00 1485.00,36.00 1485.00,36.00
             1485.00,36.00 1630.00,36.00 1630.00,36.00 Z
           M 1946.00,36.00
           C 1946.00,36.00 1946.00,341.00 1946.00,341.00
             1946.00,341.00 1898.00,341.00 1898.00,341.00
             1898.00,341.00 1898.00,36.00 1898.00,36.00
             1898.00,36.00 1946.00,36.00 1946.00,36.00 Z
           M 2171.00,36.00
           C 2171.00,36.00 2171.00,76.00 2171.00,76.00
             2171.00,76.00 2100.00,76.00 2100.00,76.00
             2100.00,76.00 2100.00,341.00 2100.00,341.00
             2100.00,341.00 2052.00,341.00 2052.00,341.00
             2052.00,341.00 2052.00,138.00 2052.00,138.00
             2052.00,138.00 2052.00,85.00 2052.00,85.00
             2051.94,76.26 2050.24,76.02 2042.00,76.00
             2042.00,76.00 1979.00,76.00 1979.00,76.00
             1979.00,76.00 1979.00,36.00 1979.00,36.00
             1979.00,36.00 2171.00,36.00 2171.00,36.00 Z
           M 2225.00,36.00
           C 2225.00,36.00 2232.49,37.02 2232.49,37.02
             2232.49,37.02 2236.60,45.00 2236.60,45.00
             2236.60,45.00 2244.80,66.00 2244.80,66.00
             2244.80,66.00 2266.20,121.00 2266.20,121.00
             2266.20,121.00 2284.00,167.00 2284.00,167.00
             2284.00,167.00 2299.00,131.00 2299.00,131.00
             2299.00,131.00 2324.60,67.00 2324.60,67.00
             2324.60,67.00 2333.00,46.00 2333.00,46.00
             2333.00,46.00 2337.65,36.99 2337.65,36.99
             2337.65,36.99 2345.00,36.00 2345.00,36.00
             2345.00,36.00 2387.00,36.00 2387.00,36.00
             2387.00,36.00 2366.86,83.00 2366.86,83.00
             2366.86,83.00 2326.58,175.00 2326.58,175.00
             2326.58,175.00 2314.23,203.00 2314.23,203.00
             2310.15,211.94 2306.02,219.03 2306.00,229.00
             2306.00,229.00 2306.00,341.00 2306.00,341.00
             2306.00,341.00 2258.00,341.00 2258.00,341.00
             2258.00,341.00 2258.00,230.00 2258.00,230.00
             2257.98,219.83 2254.88,215.13 2251.00,206.00
             2251.00,206.00 2237.85,175.00 2237.85,175.00
             2237.85,175.00 2200.72,87.00 2200.72,87.00
             2200.72,87.00 2187.58,56.00 2187.58,56.00
             2184.94,49.82 2181.17,42.49 2180.00,36.00
             2180.00,36.00 2225.00,36.00 2225.00,36.00 Z
           M 2800.00,36.00
           C 2800.00,36.00 2800.00,52.00 2800.00,52.00
             2800.00,52.00 2672.00,52.00 2672.00,52.00
             2672.00,52.00 2672.00,174.00 2672.00,174.00
             2672.00,174.00 2791.00,174.00 2791.00,174.00
             2791.00,174.00 2791.00,190.00 2791.00,190.00
             2791.00,190.00 2672.00,190.00 2672.00,190.00
             2672.00,190.00 2672.00,341.00 2672.00,341.00
             2672.00,341.00 2655.00,341.00 2655.00,341.00
             2655.00,341.00 2655.00,36.00 2655.00,36.00
             2655.00,36.00 2800.00,36.00 2800.00,36.00 Z
           M 2437.00,103.00
           C 2429.89,124.51 2427.26,148.45 2427.00,171.00
             2427.00,171.00 2426.05,181.00 2426.05,181.00
             2426.05,181.00 2426.05,193.00 2426.05,193.00
             2426.05,193.00 2427.00,208.00 2427.00,208.00
             2427.04,230.80 2430.81,261.81 2439.20,283.00
             2447.78,304.64 2460.67,321.96 2484.00,328.57
             2489.57,330.15 2500.26,331.86 2506.00,331.99
             2526.66,332.45 2547.23,325.13 2560.68,309.00
             2569.07,298.94 2574.70,285.39 2578.66,273.00
             2584.21,255.59 2585.85,237.09 2587.09,219.00
             2587.09,219.00 2588.00,207.00 2588.00,207.00
             2588.00,207.00 2588.00,168.00 2588.00,168.00
             2588.00,168.00 2586.17,146.00 2586.17,146.00
             2582.35,107.80 2571.40,59.39 2529.00,47.43
             2523.06,45.75 2517.15,45.01 2511.00,45.14
             2511.00,45.14 2497.00,45.14 2497.00,45.14
             2463.29,50.44 2447.18,72.21 2437.00,103.00 Z
           M 352.00,154.00
           C 352.00,154.00 352.00,356.00 352.00,356.00
             352.00,356.00 404.00,356.00 404.00,356.00
             404.00,356.00 404.00,154.00 404.00,154.00
             404.00,154.00 352.00,154.00 352.00,154.00 Z
           M 429.00,154.00
           C 429.00,154.00 429.00,356.00 429.00,356.00
             429.00,356.00 481.00,356.00 481.00,356.00
             481.00,356.00 481.00,154.00 481.00,154.00
             481.00,154.00 429.00,154.00 429.00,154.00 Z
           M 506.00,154.00
           C 506.00,154.00 506.00,356.00 506.00,356.00
             506.00,356.00 558.00,356.00 558.00,356.00
             558.00,356.00 558.00,154.00 558.00,154.00
             558.00,154.00 506.00,154.00 506.00,154.00 Z
           M 583.00,154.00
           C 583.00,154.00 583.00,356.00 583.00,356.00
             583.00,356.00 635.00,356.00 635.00,356.00
             635.00,356.00 635.00,154.00 635.00,154.00
             635.00,154.00 583.00,154.00 583.00,154.00 Z
           M 1395.18,672.90
           C 1402.95,680.90 1416.08,681.09 1423.79,672.90
             1428.43,667.96 1430.70,659.65 1430.96,653.00
             1431.24,645.82 1429.24,636.67 1424.61,631.04
             1417.13,621.94 1395.06,613.44 1384.00,608.22
             1354.43,594.26 1320.36,579.71 1311.48,545.00
             1310.29,540.34 1309.06,531.79 1309.00,527.00
             1308.66,497.97 1309.60,465.93 1332.09,444.17
             1350.61,426.25 1377.87,419.25 1403.00,419.00
             1403.00,419.00 1426.00,419.00 1426.00,419.00
             1426.00,419.00 1445.00,421.25 1445.00,421.25
             1460.67,423.97 1478.50,430.68 1489.91,442.09
             1507.64,459.82 1511.00,487.15 1511.00,511.00
             1511.00,511.00 1431.00,511.00 1431.00,511.00
             1431.00,503.07 1431.93,491.99 1427.91,485.00
             1419.77,470.82 1402.45,471.16 1394.22,485.00
             1388.73,494.25 1390.57,506.19 1395.93,515.00
             1406.42,532.28 1435.77,541.16 1454.00,548.60
             1468.70,554.60 1484.65,562.71 1495.96,574.04
             1509.10,587.19 1517.78,609.43 1518.00,628.00
             1518.33,656.20 1516.85,687.39 1495.91,708.96
             1485.39,719.80 1470.43,726.25 1456.00,729.87
             1430.33,736.32 1393.96,736.79 1368.00,731.60
             1352.67,728.53 1337.07,722.54 1326.09,710.99
             1312.49,696.68 1306.03,674.45 1306.00,655.00
             1306.00,655.00 1306.00,638.00 1306.00,638.00
             1306.00,638.00 1388.00,638.00 1388.00,638.00
             1388.00,649.86 1386.15,663.59 1395.18,672.90 Z
           M 1050.12,698.00
           C 1050.12,698.00 1063.12,643.00 1063.12,643.00
             1063.12,643.00 1098.37,494.00 1098.37,494.00
             1098.37,494.00 1110.87,441.00 1110.87,441.00
             1110.87,441.00 1115.72,424.99 1115.72,424.99
             1115.72,424.99 1123.00,424.00 1123.00,424.00
             1123.00,424.00 1222.00,424.00 1222.00,424.00
             1222.00,424.00 1240.12,502.00 1240.12,502.00
             1240.12,502.00 1273.88,646.00 1273.88,646.00
             1273.88,646.00 1285.88,697.00 1285.88,697.00
             1285.88,697.00 1293.00,729.00 1293.00,729.00
             1293.00,729.00 1214.00,729.00 1214.00,729.00
             1204.77,728.98 1205.80,729.00 1203.20,716.00
             1203.20,716.00 1198.60,693.00 1198.60,693.00
             1198.07,690.33 1197.44,685.47 1195.44,683.60
             1193.38,681.67 1189.65,682.01 1187.00,682.00
             1187.00,682.00 1148.00,682.00 1148.00,682.00
             1145.44,682.01 1141.67,681.65 1139.73,683.60
             1137.89,685.44 1137.36,690.43 1136.92,693.00
             1136.92,693.00 1132.75,716.00 1132.75,716.00
             1130.52,728.81 1131.31,728.98 1122.00,729.00
             1122.00,729.00 1043.00,729.00 1043.00,729.00
             1043.00,729.00 1050.12,698.00 1050.12,698.00 Z
           M 1635.00,424.00
           C 1635.00,424.00 1635.00,535.00 1635.00,535.00
             1635.00,535.00 1667.00,535.00 1667.00,535.00
             1667.00,535.00 1675.40,533.40 1675.40,533.40
             1675.40,533.40 1677.00,525.00 1677.00,525.00
             1677.00,525.00 1677.00,424.00 1677.00,424.00
             1677.00,424.00 1761.00,424.00 1761.00,424.00
             1761.00,424.00 1761.00,729.00 1761.00,729.00
             1761.00,729.00 1677.00,729.00 1677.00,729.00
             1677.00,729.00 1677.00,606.00 1677.00,606.00
             1677.00,606.00 1635.00,606.00 1635.00,606.00
             1635.00,606.00 1635.00,729.00 1635.00,729.00
             1635.00,729.00 1550.00,729.00 1550.00,729.00
             1550.00,729.00 1550.00,424.00 1550.00,424.00
             1550.00,424.00 1635.00,424.00 1635.00,424.00 Z
           M 1985.00,424.00
           C 1985.00,424.00 1985.00,493.00 1985.00,493.00
             1985.00,493.00 1887.00,493.00 1887.00,493.00
             1887.00,493.00 1887.00,541.00 1887.00,541.00
             1887.00,541.00 1979.00,541.00 1979.00,541.00
             1979.00,541.00 1979.00,607.00 1979.00,607.00
             1979.00,607.00 1887.00,607.00 1887.00,607.00
             1887.00,607.00 1887.00,660.00 1887.00,660.00
             1887.00,660.00 1989.00,660.00 1989.00,660.00
             1989.00,660.00 1989.00,729.00 1989.00,729.00
             1989.00,729.00 1802.00,729.00 1802.00,729.00
             1802.00,729.00 1802.00,424.00 1802.00,424.00
             1802.00,424.00 1985.00,424.00 1985.00,424.00 Z
           M 2084.00,424.00
           C 2084.00,424.00 2091.83,425.57 2091.83,425.57
             2091.83,425.57 2094.15,440.00 2094.15,440.00
             2094.15,440.00 2098.72,478.00 2098.72,478.00
             2098.72,478.00 2113.16,602.00 2113.16,602.00
             2113.16,602.00 2118.16,644.00 2118.16,644.00
             2118.16,644.00 2120.00,660.00 2120.00,660.00
             2120.00,660.00 2122.00,660.00 2122.00,660.00
             2122.00,660.00 2127.84,607.00 2127.84,607.00
             2127.84,607.00 2142.16,484.00 2142.16,484.00
             2142.16,484.00 2149.00,424.00 2149.00,424.00
             2149.00,424.00 2239.00,424.00 2239.00,424.00
             2239.00,424.00 2225.21,489.00 2225.21,489.00
             2225.21,489.00 2193.00,642.00 2193.00,642.00
             2193.00,642.00 2181.58,696.00 2181.58,696.00
             2181.58,696.00 2175.00,729.00 2175.00,729.00
             2175.00,729.00 2073.00,729.00 2073.00,729.00
             2070.92,729.00 2067.26,729.23 2065.56,727.98
             2063.02,726.10 2061.53,714.49 2060.79,711.00
             2060.79,711.00 2049.80,659.00 2049.80,659.00
             2049.80,659.00 2034.21,585.00 2034.21,585.00
             2034.21,585.00 2018.58,510.00 2018.58,510.00
             2018.58,510.00 2007.00,455.00 2007.00,455.00
             2007.00,455.00 2001.00,424.00 2001.00,424.00
             2001.00,424.00 2084.00,424.00 2084.00,424.00 Z
           M 2338.00,424.00
           C 2338.00,424.00 2338.00,729.00 2338.00,729.00
             2338.00,729.00 2254.00,729.00 2254.00,729.00
             2254.00,729.00 2254.00,424.00 2254.00,424.00
             2254.00,424.00 2338.00,424.00 2338.00,424.00 Z
           M 2459.00,424.00
           C 2459.00,424.00 2459.00,660.00 2459.00,660.00
             2459.00,660.00 2553.00,660.00 2553.00,660.00
             2553.00,660.00 2553.00,729.00 2553.00,729.00
             2553.00,729.00 2375.00,729.00 2375.00,729.00
             2375.00,729.00 2375.00,424.00 2375.00,424.00
             2375.00,424.00 2459.00,424.00 2459.00,424.00 Z
           M 2664.00,424.00
           C 2664.00,424.00 2664.00,660.00 2664.00,660.00
             2664.00,660.00 2757.00,660.00 2757.00,660.00
             2757.00,660.00 2757.00,729.00 2757.00,729.00
             2757.00,729.00 2579.00,729.00 2579.00,729.00
             2579.00,729.00 2579.00,424.00 2579.00,424.00
             2579.00,424.00 2664.00,424.00 2664.00,424.00 Z
           M 2966.00,424.00
           C 2966.00,424.00 2966.00,493.00 2966.00,493.00
             2966.00,493.00 2868.00,493.00 2868.00,493.00
             2868.00,493.00 2868.00,541.00 2868.00,541.00
             2868.00,541.00 2960.00,541.00 2960.00,541.00
             2960.00,541.00 2960.00,607.00 2960.00,607.00
             2960.00,607.00 2868.00,607.00 2868.00,607.00
             2868.00,607.00 2868.00,660.00 2868.00,660.00
             2868.00,660.00 2970.00,660.00 2970.00,660.00
             2970.00,660.00 2970.00,729.00 2970.00,729.00
             2970.00,729.00 2783.00,729.00 2783.00,729.00
             2783.00,729.00 2783.00,424.00 2783.00,424.00
             2783.00,424.00 2966.00,424.00 2966.00,424.00 Z
           M 1167.00,491.00
           C 1167.00,491.00 1161.42,528.00 1161.42,528.00
             1161.42,528.00 1151.73,590.00 1151.73,590.00
             1151.73,590.00 1148.00,616.00 1148.00,616.00
             1148.00,616.00 1187.00,616.00 1187.00,616.00
             1187.00,616.00 1181.27,575.00 1181.27,575.00
             1181.27,575.00 1169.00,491.00 1169.00,491.00
             1169.00,491.00 1167.00,491.00 1167.00,491.00 Z" />
</svg>
